<?xml version="1.0" standalone="no"?>
<!DOCTYPE svg PUBLIC "-//W3C//DTD SVG 20010904//EN"
 "http://www.w3.org/TR/2001/REC-SVG-20010904/DTD/svg10.dtd">
<svg version="1.0" xmlns="http://www.w3.org/2000/svg"
 width="252.000000pt" height="252.000000pt" viewBox="0 0 252.000000 252.000000"
 preserveAspectRatio="xMidYMid meet">

<g transform="translate(0.000000,252.000000) scale(0.100000,-0.100000)"
fill="#000000" stroke="none">
<path d="M0 1260 l0 -1260 1260 0 1260 0 0 1260 0 1260 -1260 0 -1260 0 0
-1260z m353 828 c9 -7 68 -91 130 -186 l113 -173 108 163 c60 90 118 173 129
186 25 27 61 28 87 2 19 -19 20 -33 20 -340 0 -307 -1 -321 -20 -340 -11 -11
-31 -20 -45 -20 -14 0 -34 9 -45 20 -19 19 -20 33 -20 238 l0 217 -90 -137
c-92 -140 -114 -160 -154 -139 -12 7 -59 72 -106 146 l-85 135 -5 -226 c-5
-209 -6 -227 -24 -240 -25 -18 -47 -18 -72 0 -18 14 -19 31 -22 333 -3 312 -2
320 18 346 23 29 56 35 83 15z m1041 -10 c8 -13 55 -120 104 -238 50 -118 106
-253 126 -298 20 -46 36 -93 36 -105 0 -47 -61 -75 -93 -43 -8 8 -27 44 -43
80 l-28 66 -153 0 -153 0 -37 -77 c-33 -67 -42 -78 -66 -81 -35 -4 -57 13 -57
44 0 24 239 610 266 652 10 16 24 22 49 22 25 0 39 -6 49 -22z m422 14 c6 -4
52 -62 103 -129 51 -68 94 -123 96 -123 2 0 45 56 96 125 55 74 103 128 116
131 29 8 62 -12 69 -42 5 -21 -11 -48 -100 -166 -59 -77 -105 -145 -103 -152
3 -6 50 -71 106 -145 56 -74 101 -143 101 -153 0 -25 -35 -58 -63 -58 -33 0
-44 11 -142 143 -48 64 -90 117 -94 117 -3 0 -35 -41 -71 -91 -94 -133 -128
-169 -155 -169 -30 0 -55 25 -55 53 0 12 48 86 106 165 l106 143 -103 136
c-56 75 -104 145 -107 155 -7 29 24 68 56 68 15 0 32 -4 38 -8z m-82 -924 c16
-15 60 -106 122 -253 53 -126 102 -243 110 -260 l13 -30 16 38 c8 21 54 138
101 260 47 122 93 229 102 238 9 10 26 20 38 23 27 8 74 -28 74 -57 0 -12 -64
-173 -143 -357 -119 -277 -148 -337 -170 -350 -43 -24 -74 0 -113 90 -116 261
-254 596 -254 616 0 23 42 64 66 64 7 0 24 -10 38 -22z m-1031 -4 c161 -55
255 -282 202 -487 -30 -116 -88 -192 -180 -237 -46 -23 -64 -25 -237 -28 -178
-4 -187 -3 -207 17 -21 21 -21 29 -21 368 0 308 2 348 17 365 14 16 34 18 198
18 140 0 192 -4 228 -16z m829 -1 c22 -20 23 -61 1 -85 -14 -16 -34 -18 -180
-18 l-163 0 0 -95 0 -95 133 0 c104 0 137 -3 155 -16 25 -18 29 -60 8 -90 -13
-17 -29 -19 -155 -22 l-141 -4 0 -98 0 -99 166 -3 c150 -3 167 -5 180 -22 21
-30 17 -72 -8 -90 -19 -13 -58 -16 -230 -16 -195 0 -209 1 -228 20 -19 19 -20
33 -20 367 0 308 2 348 17 365 15 16 36 18 231 18 186 0 218 -2 234 -17z"/>
<path d="M1290 1783 c-25 -58 -46 -110 -48 -115 -2 -4 42 -8 98 -8 93 0 102 2
96 18 -21 54 -92 212 -96 212 -3 0 -25 -48 -50 -107z"/>
<path d="M400 800 l0 -260 109 0 c123 0 152 8 198 52 94 91 89 341 -9 423 -40
34 -88 45 -200 45 l-98 0 0 -260z"/>
</g>
</svg>
