<?xml version="1.0" standalone="no"?>
<!DOCTYPE svg PUBLIC "-//W3C//DTD SVG 20010904//EN"
 "http://www.w3.org/TR/2001/REC-SVG-20010904/DTD/svg10.dtd">
<svg version="1.0" xmlns="http://www.w3.org/2000/svg"
 width="299.000000pt" height="251.000000pt" viewBox="0 0 299.000000 251.000000"
 preserveAspectRatio="xMidYMid meet">

<g transform="translate(0.000000,251.000000) scale(0.100000,-0.100000)"
fill="#000000" stroke="none">
<path d="M1557 2092 c-9 -2 -23 -16 -31 -30 -27 -53 -266 -632 -266 -645 0
-20 33 -47 58 -47 26 0 53 35 77 97 10 26 22 54 28 61 7 8 51 12 156 12 l147
0 33 -75 c19 -42 42 -80 53 -86 29 -15 63 -3 76 27 12 25 -19 108 -240 626
-20 48 -52 69 -91 60z m67 -314 c26 -59 46 -112 46 -117 0 -13 -190 -16 -190
-3 0 10 93 232 96 229 2 -1 23 -51 48 -109z"/>
<path d="M510 2070 c-20 -20 -20 -31 -18 -342 l3 -321 28 -20 27 -21 28 21 27
20 5 221 5 221 85 -136 c90 -144 114 -166 154 -139 12 7 60 71 106 141 l85
128 5 -221 c3 -154 9 -225 17 -233 18 -18 71 -15 91 5 15 15 17 51 20 329 3
306 2 314 -18 340 -23 29 -56 35 -82 15 -9 -7 -66 -88 -127 -180 -61 -93 -115
-168 -119 -168 -4 0 -54 73 -112 163 -58 89 -113 170 -122 179 -24 24 -63 23
-88 -2z"/>
<path d="M1982 2083 c-22 -9 -33 -52 -20 -76 6 -12 54 -77 106 -145 51 -67 92
-128 89 -135 -3 -7 -46 -68 -97 -136 -114 -153 -118 -162 -96 -196 18 -27 52
-33 78 -12 8 6 54 65 101 130 48 64 90 117 94 116 5 0 51 -57 103 -127 76
-101 101 -128 122 -130 31 -4 68 28 68 57 0 11 -48 84 -106 161 -58 78 -104
145 -102 148 2 4 49 68 106 143 56 75 102 145 102 156 0 25 -30 53 -58 53 -27
0 -38 -12 -140 -148 -47 -62 -88 -109 -92 -105 -4 4 -48 63 -99 131 -79 105
-95 122 -119 121 -15 0 -33 -3 -40 -6z"/>
<path d="M540 1174 c-39 -16 -40 -28 -40 -384 0 -323 1 -348 18 -363 16 -15
45 -17 204 -17 l185 0 61 31 c103 51 163 145 183 284 25 185 -56 365 -194 426
-47 21 -70 23 -227 26 -96 1 -182 0 -190 -3z m382 -156 c20 -15 47 -49 59 -75
21 -41 24 -63 24 -153 0 -127 -22 -185 -88 -228 -38 -26 -47 -27 -161 -27
l-121 0 -3 258 -2 259 128 -4 c122 -3 130 -4 164 -30z"/>
<path d="M1304 1155 l-25 -25 3 -346 c3 -329 4 -346 22 -360 27 -19 434 -21
458 -2 27 22 30 53 7 81 l-20 27 -165 0 -164 0 0 105 0 105 138 0 c156 0 175
6 175 60 0 54 -19 60 -175 60 l-138 0 0 95 0 95 160 0 c159 0 161 0 186 25 29
29 26 58 -8 88 -18 15 -44 17 -225 17 l-204 0 -25 -25z"/>
<path d="M1884 1154 c-18 -17 -24 -32 -20 -47 11 -45 278 -662 293 -679 19
-21 62 -23 86 -5 22 16 297 663 297 698 0 54 -70 77 -107 37 -11 -13 -65 -137
-118 -275 -54 -139 -101 -253 -104 -253 -3 0 -55 118 -116 261 -65 154 -118
267 -130 275 -29 21 -53 17 -81 -12z"/>
</g>
</svg>
